<svg xmlns="http://www.w3.org/2000/svg" xmlns:xlink="http://www.w3.org/1999/xlink" width="80" zoomAndPan="magnify" viewBox="0 0 60 60" height="80" preserveAspectRatio="xMidYMid meet" version="1.0"><defs><clipPath id="3b9a695ecc"><path d="M 8 16 L 57 16 L 57 53 L 8 53 Z M 8 16 " clip-rule="nonzero"/></clipPath><clipPath id="d64d733dfa"><path d="M 2.285156 43.796875 L 47.035156 6.117188 L 57.664062 18.738281 L 12.914062 56.417969 Z M 2.285156 43.796875 " clip-rule="nonzero"/></clipPath><clipPath id="a68be0af49"><path d="M 57.703125 18.75 L 12.953125 56.429688 L 2.328125 43.808594 L 47.074219 6.128906 Z M 57.703125 18.75 " clip-rule="nonzero"/></clipPath><clipPath id="c4f1ee0f9b"><path d="M 45 18 L 47 18 L 47 19 L 45 19 Z M 45 18 " clip-rule="nonzero"/></clipPath><clipPath id="d56668c196"><path d="M 2.285156 43.796875 L 47.035156 6.117188 L 57.664062 18.738281 L 12.914062 56.417969 Z M 2.285156 43.796875 " clip-rule="nonzero"/></clipPath><clipPath id="7bbc185582"><path d="M 57.703125 18.75 L 12.953125 56.429688 L 2.328125 43.808594 L 47.074219 6.128906 Z M 57.703125 18.75 " clip-rule="nonzero"/></clipPath></defs><g clip-path="url(#3b9a695ecc)"><g clip-path="url(#d64d733dfa)"><g clip-path="url(#a68be0af49)"><path fill="#000000" d="M 56.6875 18.980469 C 56.683594 18.929688 56.65625 18.890625 56.613281 18.867188 C 56.617188 18.6875 56.886719 18.59375 56.765625 18.378906 C 56.8125 17.824219 56.441406 17.613281 56.007812 17.460938 C 54.789062 17.039062 53.53125 16.824219 52.253906 16.683594 C 47.6875 16.191406 43.226562 16.671875 38.800781 17.953125 C 31.082031 20.183594 24.992188 24.71875 20.074219 30.945312 C 17.796875 33.832031 16.0625 37.058594 14.480469 40.371094 C 13.550781 42.316406 12.738281 44.308594 11.878906 46.285156 C 11.878906 46.367188 11.882812 46.453125 11.882812 46.535156 C 11.8125 46.601562 11.753906 46.695312 11.671875 46.71875 C 11.671875 46.71875 11.671875 46.71875 11.667969 46.71875 C 11.601562 46.734375 11.578125 46.644531 11.609375 46.570312 C 11.410156 45.75 11.386719 44.914062 11.410156 44.078125 C 11.425781 43.507812 11.398438 42.949219 11.203125 42.40625 C 11.246094 41.175781 10.636719 40.40625 9.527344 40.230469 C 8.335938 42.386719 8.4375 44.679688 8.726562 47.003906 C 8.835938 47.871094 8.886719 48.738281 8.949219 49.605469 C 9.097656 51.6875 9.191406 51.378906 10.710938 52.128906 C 11.054688 52.296875 11.425781 52.386719 11.804688 52.433594 C 11.945312 52.449219 12.078125 52.453125 12.191406 52.359375 C 12.589844 52.527344 12.871094 52.296875 13.132812 52.058594 C 13.914062 51.347656 14.6875 50.632812 15.464844 49.914062 C 15.710938 49.867188 15.863281 49.691406 16.007812 49.503906 C 16.257812 49.464844 16.40625 49.285156 16.5625 49.113281 C 16.746094 49.113281 16.851562 48.96875 16.984375 48.882812 C 18.816406 47.734375 20.753906 46.804688 22.839844 46.210938 C 22.996094 46.164062 23.148438 46.109375 23.304688 46.054688 C 23.488281 45.996094 23.699219 45.929688 23.699219 45.710938 C 23.699219 45.542969 23.527344 45.382812 23.386719 45.363281 C 22.761719 45.273438 22.292969 44.816406 21.699219 44.675781 C 21.433594 44.613281 21.164062 44.664062 20.894531 44.722656 C 18.792969 45.148438 16.824219 45.9375 14.929688 46.925781 C 14.761719 47.015625 14.601562 47.132812 14.417969 47.183594 C 14.207031 47.242188 14.144531 47.074219 14.125 46.898438 C 14.304688 46.777344 14.367188 46.613281 14.324219 46.40625 C 14.46875 46.261719 14.597656 46.113281 14.539062 45.886719 C 14.59375 45.875 14.609375 45.84375 14.585938 45.792969 C 14.726562 45.660156 14.839844 45.515625 14.796875 45.304688 C 14.875 45.195312 14.96875 45.09375 15.023438 44.972656 C 15.652344 43.648438 16.253906 42.316406 16.894531 41 C 17.476562 39.800781 18.09375 38.625 18.699219 37.441406 C 18.894531 37.148438 19.101562 36.863281 19.289062 36.5625 C 21.097656 33.664062 23.230469 31.023438 25.753906 28.707031 C 26.652344 27.878906 27.578125 27.082031 28.492188 26.269531 C 28.753906 26.222656 28.902344 26.027344 29.054688 25.835938 C 29.308594 25.796875 29.453125 25.613281 29.597656 25.433594 C 29.839844 25.410156 29.96875 25.226562 30.121094 25.070312 C 30.28125 25.070312 30.382812 24.980469 30.457031 24.851562 C 30.515625 24.847656 30.554688 24.816406 30.570312 24.761719 C 30.75 24.757812 30.855469 24.617188 30.992188 24.535156 C 31.664062 24.140625 32.265625 23.625 32.992188 23.3125 C 33 23.222656 33.152344 23.054688 32.867188 23.140625 C 32.679688 23.199219 32.636719 23.164062 32.644531 23.097656 C 32.652344 23.039062 32.699219 22.957031 32.730469 22.890625 C 34.898438 21.707031 37.1875 20.800781 39.53125 20.042969 C 39.757812 19.992188 39.980469 19.941406 40.207031 19.890625 C 41.546875 19.59375 42.886719 19.292969 44.222656 18.992188 C 44.277344 19.015625 44.324219 19.019531 44.371094 19.003906 C 44.402344 18.996094 44.429688 18.980469 44.460938 18.957031 C 44.542969 18.996094 44.621094 18.980469 44.6875 18.921875 C 44.773438 18.964844 44.847656 18.949219 44.917969 18.886719 C 45 18.933594 45.078125 18.917969 45.148438 18.855469 C 45.230469 18.902344 45.308594 18.890625 45.378906 18.824219 C 45.460938 18.875 45.535156 18.863281 45.605469 18.796875 L 45.609375 18.796875 C 45.6875 18.847656 45.765625 18.835938 45.832031 18.773438 L 45.839844 18.769531 C 45.914062 18.769531 45.988281 18.761719 46.0625 18.75 L 46.070312 18.746094 C 46.152344 18.796875 46.226562 18.789062 46.296875 18.726562 L 46.304688 18.722656 C 46.382812 18.773438 46.457031 18.765625 46.527344 18.703125 L 46.535156 18.699219 C 46.535156 18.699219 46.539062 18.703125 46.539062 18.703125 C 46.539062 18.703125 46.535156 18.699219 46.535156 18.699219 C 46.617188 18.753906 46.691406 18.746094 46.761719 18.679688 L 46.765625 18.679688 C 46.847656 18.730469 46.921875 18.722656 46.992188 18.660156 L 46.996094 18.660156 C 47.078125 18.707031 47.15625 18.703125 47.226562 18.640625 C 47.9375 18.625 48.648438 18.613281 49.363281 18.597656 C 49.730469 18.472656 50.109375 18.535156 50.484375 18.546875 C 50.503906 18.585938 50.511719 18.625 50.511719 18.664062 C 50.515625 18.722656 50.5 18.78125 50.460938 18.835938 C 50.742188 18.875 51.019531 18.933594 51.300781 18.839844 C 51.386719 18.804688 51.46875 18.78125 51.5625 18.792969 C 51.476562 18.808594 51.390625 18.824219 51.300781 18.839844 C 51.390625 18.871094 51.476562 18.886719 51.542969 18.8125 C 51.65625 18.902344 51.777344 18.910156 51.910156 18.867188 C 51.980469 18.925781 52.054688 18.9375 52.128906 18.878906 C 52.214844 18.917969 52.296875 18.9375 52.382812 18.878906 C 52.421875 18.90625 52.464844 18.917969 52.511719 18.902344 C 52.78125 18.988281 53.050781 19.011719 53.328125 18.972656 C 53.523438 19.023438 53.714844 19.082031 53.914062 19.027344 C 54.023438 19.101562 54.152344 19.089844 54.273438 19.082031 C 55.03125 19.28125 55.820312 19.34375 56.574219 19.699219 C 56.570312 19.40625 56.839844 19.234375 56.6875 18.980469 Z M 14.460938 45.6875 C 14.464844 45.6875 14.464844 45.6875 14.464844 45.683594 C 14.464844 45.683594 14.460938 45.683594 14.460938 45.683594 C 14.464844 45.683594 14.464844 45.683594 14.464844 45.683594 C 14.464844 45.6875 14.46875 45.6875 14.46875 45.6875 C 14.464844 45.691406 14.464844 45.6875 14.460938 45.6875 Z M 46.679688 18.234375 C 46.660156 18.234375 46.644531 18.230469 46.625 18.230469 C 46.628906 18.226562 46.636719 18.226562 46.640625 18.226562 C 46.65625 18.222656 46.671875 18.222656 46.6875 18.222656 C 46.6875 18.222656 46.683594 18.226562 46.679688 18.234375 Z M 44.234375 18.980469 C 44.234375 18.980469 44.234375 18.980469 44.234375 18.976562 C 44.234375 18.972656 44.230469 18.964844 44.230469 18.957031 L 44.234375 18.9375 L 44.234375 18.980469 C 44.234375 18.980469 44.238281 18.980469 44.238281 18.980469 C 44.238281 18.980469 44.234375 18.980469 44.234375 18.980469 Z M 46.722656 18.160156 C 46.710938 18.179688 46.699219 18.199219 46.6875 18.21875 C 46.675781 18.21875 46.660156 18.222656 46.644531 18.222656 C 46.675781 18.214844 46.703125 18.195312 46.722656 18.160156 Z M 46.539062 18.230469 C 46.519531 18.230469 46.5 18.234375 46.484375 18.234375 C 46.484375 18.230469 46.480469 18.234375 46.480469 18.230469 C 46.5 18.230469 46.519531 18.230469 46.539062 18.230469 Z M 55.457031 18.160156 C 55.457031 18.15625 55.460938 18.15625 55.460938 18.15625 C 55.460938 18.15625 55.464844 18.15625 55.464844 18.15625 C 55.464844 18.160156 55.46875 18.160156 55.46875 18.160156 C 55.464844 18.160156 55.460938 18.160156 55.457031 18.160156 Z M 55.117188 18.070312 C 55.117188 18.070312 55.113281 18.066406 55.109375 18.066406 C 55.113281 18.070312 55.117188 18.070312 55.117188 18.070312 Z M 51.679688 18.714844 C 51.6875 18.699219 51.695312 18.683594 51.695312 18.664062 C 51.707031 18.671875 51.714844 18.675781 51.722656 18.683594 C 51.707031 18.691406 51.695312 18.703125 51.679688 18.714844 Z M 52.285156 18.828125 C 52.3125 18.828125 52.34375 18.835938 52.375 18.855469 C 52.375 18.855469 52.375 18.855469 52.371094 18.855469 C 52.34375 18.839844 52.3125 18.832031 52.285156 18.828125 Z M 52.285156 18.828125 " fill-opacity="1" fill-rule="nonzero"/></g></g></g><g clip-path="url(#c4f1ee0f9b)"><g clip-path="url(#d56668c196)"><g clip-path="url(#7bbc185582)"><path fill="#000000" d="M 46.074219 18.742188 C 46 18.75 45.925781 18.761719 45.851562 18.765625 C 45.933594 18.816406 46.007812 18.808594 46.074219 18.742188 Z M 46.074219 18.742188 " fill-opacity="1" fill-rule="nonzero"/></g></g></g></svg>